<svg width="323" height="200" viewBox="0 0 323 200" fill="none" xmlns="http://www.w3.org/2000/svg">
<path d="M252.577 127.486C252.414 129.745 252.174 131.998 251.843 134.237C251.16 138.851 250.11 143.434 248.478 147.808C247.596 150.164 246.556 152.392 245.322 154.456C241.911 160.192 237.073 164.663 230.394 167.105C226.433 168.553 222.15 169.665 217.909 169.757C216.058 169.797 214.121 169.665 212.372 169.002C211.852 168.803 208.252 166.968 208.67 166.132C208.67 166.132 212.642 160.263 218.128 154.247C223.262 148.609 229.726 142.837 235.488 141.67C247.01 139.325 252.47 122.51 252.807 121.455C252.307 123.173 252.705 125.687 252.577 127.486Z" fill="#24B580"/>
<path d="M246.026 142.998C245.924 142.998 245.827 143.059 245.786 143.161C245.735 143.289 240.784 155.841 229.859 156.667C218.699 157.513 210.393 163.361 210.312 163.417C210.195 163.498 210.169 163.656 210.251 163.774C210.302 163.845 210.378 163.881 210.46 163.881C210.511 163.881 210.562 163.865 210.608 163.835C210.689 163.779 218.877 158.013 229.9 157.176C241.146 156.325 246.214 143.472 246.26 143.345C246.311 143.212 246.245 143.064 246.112 143.013C246.087 143.003 246.056 142.998 246.026 142.998Z" fill="#28A06F"/>
<path opacity="0.47" d="M245.322 154.455C241.911 160.191 237.073 164.662 230.394 167.104C226.433 168.552 222.15 169.663 217.909 169.755C216.058 169.796 214.121 169.663 212.372 169.001C211.852 168.802 208.252 166.966 208.67 166.13C208.67 166.13 212.642 160.262 218.128 154.246C219.464 160.288 222.752 165.722 230.726 161.537C236.553 158.483 241.437 156.01 245.322 154.455Z" fill="#20664F"/>
<path d="M246.022 178.504C244.666 178.978 243.31 178.698 241.79 178.244C239.506 177.566 236.85 176.501 233.276 177.061C227.331 177.994 204.557 189.002 196.741 188.94C188.921 188.874 180.575 187.11 180.412 183.108C180.294 180.095 183.246 179.396 185.464 178.474C185.637 178.402 185.806 178.326 185.969 178.249C186.372 178.066 186.759 177.867 187.131 177.658C189.476 176.327 191.317 174.512 193.356 172.651C195.956 170.276 199.25 168.573 202.452 167.171C208.381 164.571 215.009 163.423 221.382 164.912C239.567 169.159 249.422 177.316 246.022 178.504Z" fill="#5AD16B"/>
<path d="M221.837 171.971C217.606 171.971 211.87 172.98 205.441 176.845C196.555 182.188 188.346 183.07 183.901 183.07C181.754 183.07 180.49 182.866 180.449 182.856C180.434 182.856 180.419 182.851 180.408 182.851C180.286 182.851 180.179 182.937 180.159 183.065C180.133 183.202 180.225 183.335 180.368 183.36C180.408 183.365 181.703 183.58 183.896 183.58C188.408 183.58 196.723 182.687 205.706 177.283C212.049 173.47 217.687 172.481 221.842 172.481C226.298 172.481 229.046 173.623 229.097 173.643C229.128 173.658 229.164 173.663 229.199 173.663C229.296 173.663 229.393 173.607 229.434 173.51C229.49 173.383 229.429 173.23 229.301 173.174C229.245 173.154 226.421 171.971 221.837 171.971Z" fill="#44B752"/>
<path opacity="0.24" d="M241.79 178.249C239.506 177.57 236.85 176.505 233.276 177.066C227.331 177.999 204.557 189.006 196.741 188.945C188.921 188.879 180.575 187.115 180.412 183.112C180.294 180.099 183.246 179.401 185.464 178.478C185.637 178.407 185.806 178.33 185.969 178.254C190.323 183.219 197.445 188.72 205.613 184.841C217.9 179.003 230.059 171.284 241.79 178.249Z" fill="#20664F"/>
<path d="M65.2295 127.486C65.3927 129.745 65.6323 131.998 65.9637 134.237C66.6469 138.851 67.6971 143.434 69.3286 147.808C70.2106 150.164 71.2506 152.392 72.4844 154.456C75.8952 160.192 80.7335 164.663 87.4123 167.105C91.3737 168.553 95.6563 169.665 99.8981 169.757C101.749 169.797 103.686 169.665 105.435 169.002C105.955 168.803 109.554 166.968 109.136 166.132C109.136 166.132 105.165 160.263 99.6788 154.247C94.5448 148.609 88.0802 142.837 82.3191 141.67C70.7969 139.325 65.3366 122.51 65.0001 121.455C65.4997 123.173 65.1021 125.687 65.2295 127.486Z" fill="#24B580"/>
<path d="M71.7811 142.998C71.8831 142.998 71.98 143.059 72.0208 143.161C72.0717 143.289 77.0222 155.841 87.9479 156.667C99.1081 157.513 107.413 163.361 107.495 163.417C107.612 163.498 107.638 163.656 107.556 163.774C107.505 163.845 107.429 163.881 107.347 163.881C107.296 163.881 107.245 163.865 107.199 163.835C107.118 163.779 98.9297 158.013 87.9071 157.176C76.6602 156.325 71.5925 143.472 71.5466 143.345C71.4956 143.212 71.5619 143.064 71.6945 143.013C71.7199 143.003 71.7505 142.998 71.7811 142.998Z" fill="#28A06F"/>
<path opacity="0.47" d="M72.4844 154.455C75.8952 160.191 80.7335 164.662 87.4123 167.104C91.3737 168.552 95.6563 169.663 99.8981 169.755C101.749 169.796 103.686 169.663 105.435 169.001C105.955 168.802 109.554 166.966 109.136 166.13C109.136 166.13 105.165 160.262 99.6788 154.246C98.3431 160.288 95.0547 165.722 87.0809 161.537C81.2535 158.483 76.3693 156.01 72.4844 154.455Z" fill="#20664F"/>
<path d="M71.7848 178.504C73.141 178.978 74.4971 178.698 76.0164 178.244C78.3005 177.566 80.9567 176.501 84.5306 177.061C90.4752 177.994 113.249 189.002 121.065 188.94C128.886 188.874 137.232 187.11 137.395 183.108C137.512 180.095 134.56 179.396 132.343 178.474C132.169 178.402 132.001 178.326 131.838 178.249C131.435 178.066 131.048 177.867 130.675 177.658C128.33 176.327 126.49 174.512 124.45 172.651C121.85 170.276 118.557 168.573 115.355 167.171C109.426 164.571 102.798 163.423 96.425 164.912C78.2393 169.159 68.3842 177.316 71.7848 178.504Z" fill="#5AD16B"/>
<path d="M95.9694 171.971C100.201 171.971 105.937 172.98 112.366 176.845C121.252 182.188 129.46 183.07 133.906 183.07C136.052 183.07 137.317 182.866 137.357 182.856C137.373 182.856 137.388 182.851 137.398 182.851C137.521 182.851 137.628 182.937 137.648 183.065C137.674 183.202 137.582 183.335 137.439 183.36C137.398 183.365 136.103 183.58 133.911 183.58C129.399 183.58 121.084 182.687 112.1 177.283C105.758 173.47 100.119 172.481 95.9643 172.481C91.5083 172.481 88.7604 173.623 88.7094 173.643C88.6788 173.658 88.6431 173.663 88.6074 173.663C88.5105 173.663 88.4137 173.607 88.3729 173.51C88.3168 173.383 88.378 173.23 88.5054 173.174C88.5615 173.154 91.386 171.971 95.9694 171.971Z" fill="#44B752"/>
<path opacity="0.24" d="M76.0164 178.249C78.3005 177.57 80.9567 176.505 84.5306 177.066C90.4752 177.999 113.249 189.006 121.065 188.945C128.886 188.879 137.232 187.115 137.395 183.112C137.512 180.099 134.56 179.401 132.343 178.478C132.169 178.407 132.001 178.33 131.838 178.254C127.484 183.219 120.362 188.72 112.194 184.841C99.9071 179.003 87.7476 171.284 76.0164 178.249Z" fill="#20664F"/>
<path d="M144.302 194.801C142.242 194.421 140.189 193.958 138.149 193.404C130.285 191.293 122.606 187.946 115.392 183.3C109.284 179.367 103.884 174.746 99.2313 169.611C97.307 167.493 95.5114 165.292 93.8509 163.014C74.9036 137.013 72.7283 101.113 91.1092 72.5637C106.942 47.9722 134.075 35.0039 161.434 36.04C163.423 36.1173 165.418 36.2653 167.413 36.4905C179.345 37.8421 191.168 41.8903 201.961 48.841C217.542 58.8746 228.516 73.3618 234.263 89.5416C234.514 90.2238 234.746 90.9189 234.971 91.6075C242.153 113.67 239.753 138.609 226.25 159.577C208.165 187.67 175.362 200.58 144.302 194.801Z" fill="#46B2D3"/>
<path d="M99.2283 169.611C97.304 167.493 95.5083 165.292 93.8479 163.014C74.9006 137.013 72.7253 101.113 91.1062 72.5637C106.939 47.9722 134.072 35.0039 161.431 36.04C163.42 36.1173 165.415 36.2653 167.41 36.4906C162.287 43.821 160.131 52.1491 157.151 52.9471C152.794 54.1056 145.58 50.6753 141.95 58.3469C138.313 66.012 135.919 77.9184 128.911 78.0793C121.902 78.2402 122.153 82.2047 123.633 90.5199C125.12 98.8351 119.006 103.984 113.857 104.627C108.708 105.271 99.0095 117.177 98.3852 118.786C97.7673 120.395 95.6049 120.222 95.6049 120.222C95.6049 120.222 90.1279 128.331 91.3765 133.377C92.6186 138.416 96.4802 135.777 95.6049 146.879C94.7232 157.987 102.517 163.052 100.464 168.594C100.297 169.044 99.8719 169.385 99.2283 169.611Z" fill="#5ACBE5"/>
<path d="M144.3 194.8C142.24 194.421 140.187 193.957 138.147 193.404C137.298 192.477 136.989 191.898 137.33 191.834C140.052 191.306 131.235 184.754 130.907 182.18C130.572 179.605 142.498 169.308 151.959 164.803C161.419 160.298 163.415 158.367 169.406 156.114C175.398 153.862 183.688 151.287 175.308 149.653C166.935 148.018 168.563 136.163 171.151 132.192C173.738 128.228 180.791 128.762 184.267 129.785C187.742 130.808 190.445 127.475 182.819 127.442C175.192 127.417 170.494 119.752 174.124 113.026C177.754 106.294 168.885 103.018 171.151 99.4978C173.416 95.9773 171.138 94.0079 169.754 90.9831C168.364 87.9582 165.667 81.4579 166.098 78.0791C166.53 74.7003 165.667 56.6798 172.283 51.3637C178.899 46.0477 194.629 57.9669 197.75 59.267C200.871 60.5735 209.431 68.2644 210.178 70.4848C210.918 72.7051 213.293 79.5272 216.466 79.7717C219.645 80.0163 220.115 87.8166 227.246 90.5197C229.814 91.4915 232.227 90.8093 234.261 89.5414C234.512 90.2236 234.744 90.9187 234.969 91.6074C242.151 113.67 239.751 138.609 226.248 159.577C208.163 187.67 175.36 200.58 144.3 194.8Z" fill="#5ACBE5"/>
<path d="M144.301 194.806C147.757 193.235 151.67 192.276 154.753 191.459C160.494 189.934 136.198 187.327 135.651 181.689C135.117 176.058 165.584 161.815 169.993 159.91C174.389 158.005 182.685 158.057 186.958 156.229C191.225 154.401 190.98 146.035 185.317 145.468C179.66 144.902 172.928 148.075 173.494 139.438C174.054 130.801 188.445 131.618 195.794 134.373C203.138 137.127 201.291 144.072 202.674 148.828C204.058 153.584 210.011 148.886 212.309 150.611C214.626 152.322 199.308 159.846 198.871 161.133C198.433 162.433 203.839 162.909 210.488 160.091C217.149 157.272 216.164 150.173 215.508 145.648C214.851 141.118 222.137 150.385 224.254 151.28C226.384 152.174 224.479 147.238 221.673 142.353C218.867 137.468 225.779 141.517 228.759 143.911C231.739 146.305 230.13 138.962 231.707 135.151C233.277 131.354 235.594 129.604 234.912 128.066C234.242 126.527 233.425 129.153 231.462 130.106C229.506 131.058 227.536 130.543 227.536 130.543C227.536 130.543 226.165 130.563 223.546 134.398C220.914 138.234 221.564 137.23 218.23 136.979C214.903 136.735 210.526 141.806 208.145 141.06C205.764 140.319 209.49 137.983 207.424 137.752C205.352 137.526 205.036 136.535 201.574 133.04C201.085 132.545 200.512 132.017 199.881 131.47C199.881 131.47 199.881 131.47 199.875 131.464C196.058 128.188 189.976 124.449 184.995 124.893C179.19 125.414 175.052 119.171 178.9 114.402C182.749 109.64 180.818 108.468 177.722 104.034C174.627 99.5996 183.019 95.442 177.858 90.4606C172.696 85.4728 166.769 85.357 171.737 80.0409C176.706 74.7377 174.099 74.5446 171.544 68.1602C168.989 61.7823 171.048 53.4027 176.809 53.5508C182.562 53.7052 190.903 62.8635 194.99 63.8418C199.083 64.82 205.146 65.8755 204.908 73.3025C204.67 80.7231 213.268 84.4817 217.683 86.1486C222.085 87.7962 220.373 90.8403 221.274 94.6182C222.034 97.7975 230.091 94.1613 234.963 91.6126C235.311 92.6746 235.633 93.7494 235.935 94.8242C241.901 116.063 239.102 139.618 226.249 159.582C211.923 181.831 188.367 194.555 163.757 196.016C157.295 196.402 150.762 196.009 144.301 194.806Z" fill="#BBEF3F"/>
<path d="M93.8502 163.015C83.0508 148.193 77.7026 130.159 78.5006 112.107C79.1056 98.4819 83.2053 84.8378 91.1086 72.5645C105.879 49.6334 130.471 36.8067 155.912 36.0215C157.746 35.9636 159.593 35.97 161.434 36.0408C159.278 42.5282 156.124 49.7428 152.874 49.0993C147.075 47.9472 140.144 49.2151 136.218 60.0596C132.292 70.9041 127.626 65.987 118.989 73.0343C110.339 80.0752 123.101 85.0373 120.257 94.5753C117.412 104.113 107.121 97.1046 97.6153 109.706C88.1159 122.314 85.2776 113.227 86.4876 126.993C87.6975 140.766 90.8318 144.312 91.7071 150.606C92.325 155.021 97.4093 159.121 93.8502 163.015Z" fill="#BBEF3F"/>
<path opacity="0.55" d="M199.877 131.464C196.061 128.188 189.979 124.449 184.997 124.893C179.192 125.414 175.054 119.171 178.903 114.402C182.751 109.64 180.82 108.468 177.725 104.034C174.629 99.5996 183.022 95.442 177.86 90.4606C172.698 85.4728 166.771 85.357 171.739 80.0409C176.708 74.7377 174.101 74.5446 171.546 68.1602C168.991 61.7823 171.051 53.4027 176.811 53.5508C182.565 53.7052 190.906 62.8635 194.992 63.8418C199.086 64.82 205.148 65.8755 204.91 73.3025C204.672 80.7231 213.27 84.4817 217.685 86.1486C222.087 87.7962 220.376 90.8403 221.277 94.6182C222.036 97.7975 230.094 94.1613 234.966 91.6126C235.313 92.6746 235.635 93.7494 235.937 94.8242C232.597 96.8901 226.889 99.4387 221.071 97.5658C212.009 94.6568 212.009 94.6568 212.009 94.6568C212.009 94.6568 215.375 88.8195 209.029 87.7125C202.677 86.612 198.358 84.5267 195.372 79.777C192.379 75.0273 188.711 66.532 184.27 65.9527C179.829 65.3735 179.881 77.576 179.572 85.003C179.263 92.43 184.727 92.7711 185.01 98.2223C185.3 103.667 179.372 105.147 182.5 109.556C185.622 113.965 181.059 116.178 188.009 118.933C194.844 121.643 199.729 131.168 199.877 131.464Z" fill="#55BC33"/>
<path opacity="0.55" d="M144.299 194.804C147.755 193.234 151.668 192.275 154.751 191.457C160.492 189.932 136.197 187.326 135.65 181.688C135.115 176.056 165.583 161.814 169.991 159.909C174.387 158.004 182.683 158.055 186.956 156.227C191.223 154.4 190.979 146.033 185.315 145.467C179.658 144.9 172.926 148.073 173.493 139.436C174.053 130.799 188.443 131.617 195.793 134.371C195.793 134.371 173.956 136.656 180.591 139.629C187.227 142.603 195.355 147.076 193.225 152.404C191.088 157.727 195.214 164.446 188.006 163.017C180.791 161.588 177.953 164.485 173.422 166.415C168.884 168.346 166.387 171.114 169.406 173.431C172.424 175.747 161.161 175.722 156.013 175.413C150.864 175.104 151.475 181.862 154.713 182.827C157.943 183.792 165.763 190.55 160.569 192.159C158.233 192.88 160.524 194.476 163.755 196.014C157.293 196.4 150.761 196.008 144.299 194.804Z" fill="#55BC33"/>
<path opacity="0.55" d="M93.8502 163.015C83.0508 148.193 77.7026 130.159 78.5006 112.107C79.7621 116.451 79.968 123.871 81.9696 126.233C85.2262 130.082 85.8633 109.455 88.2832 104.95C90.7095 100.445 110.32 96.2615 109.676 88.6736C109.039 81.0857 114.503 72.4487 115.764 61.6042C117.019 50.7597 129.306 53.141 132.82 48.372C136.34 43.603 141.534 42.8436 149.611 41.4663C153.704 40.7648 155.319 38.2934 155.912 36.0215C157.746 35.9636 159.593 35.97 161.434 36.0408C159.278 42.5282 156.124 49.7428 152.874 49.0993C147.075 47.9472 140.144 49.2151 136.218 60.0596C132.292 70.9041 127.626 65.987 118.989 73.0343C110.339 80.0752 123.101 85.0373 120.257 94.5753C117.412 104.113 107.121 97.1046 97.6153 109.706C88.1159 122.314 85.2776 113.227 86.4876 126.993C87.6975 140.766 90.8318 144.312 91.7071 150.606C92.325 155.021 97.4093 159.121 93.8502 163.015Z" fill="#55BC33"/>
<path d="M136.161 124.154C136.161 124.154 128.361 119.07 122.227 122.461C116.094 125.853 108.609 120.492 106.775 121.779C104.94 123.066 106.993 124.186 102.109 125.879C97.2174 127.571 99.6179 132.694 100.023 135.494C100.435 138.294 98.1119 141.402 100.023 145.103C101.935 148.803 100.686 150.168 100.023 153.244C99.3605 156.314 101.858 160.176 103.936 162.325C106.015 164.468 105.603 168.51 106.775 170.46C107.946 172.41 113.494 177.347 117.587 178.634C121.674 179.921 127.653 170.982 129.493 169.443C131.328 167.905 135.846 161.9 136.161 158.895C136.476 155.889 134.52 146.338 134.108 145.109C133.69 143.88 135.916 142.245 136.2 138.448C136.483 134.651 134.629 133.692 136.2 130.635C137.763 127.571 136.161 124.154 136.161 124.154Z" fill="#5ACBE5"/>
<path d="M112.888 168.596C112.553 164.342 103.24 160.3 103.523 156.117C103.807 151.933 109.676 149.681 105.815 134.717C101.953 119.76 118.847 126.589 118.847 126.589C118.847 126.589 123.513 126.833 130.084 126.589C134.081 126.447 135.188 128.462 135.445 130.515C135.613 131.84 135.42 133.179 135.42 133.958C135.426 135.94 131.236 141.636 132.82 146.881C134.409 152.133 135.098 159.335 131.725 160.622C128.701 161.78 127.343 167.862 124.105 172.071C123.732 172.554 123.34 173.004 122.915 173.429C118.783 177.555 113.216 172.85 112.888 168.596Z" fill="#BBEF3F"/>
<path opacity="0.55" d="M112.888 168.596C112.553 164.342 103.24 160.3 103.523 156.117C103.806 151.933 109.676 149.681 105.814 134.717C101.953 119.76 118.847 126.589 118.847 126.589C118.847 126.589 123.513 126.833 130.084 126.589C134.081 126.447 135.188 128.462 135.445 130.515C134.937 130.618 134.403 130.804 133.856 131.094C129.949 133.16 131.777 135.02 125.927 133.018C120.083 131.017 119.014 131.969 116.009 133.958C113.003 135.953 115.475 142.588 115.307 146.881C115.146 151.18 109.792 148.825 109.676 154.186C109.567 159.547 111.504 163.408 113.216 166.414C114.934 169.42 114.04 170.848 119.928 172.206C121.248 172.509 122.715 172.348 124.105 172.071C123.732 172.554 123.339 173.004 122.915 173.429C118.783 177.555 113.216 172.85 112.888 168.596Z" fill="#55BC33"/>
<path d="M117.836 175.601L102.979 174.951V161.471L117.836 164.223V175.601Z" fill="url(#paint0_linear_1181_16990)"/>
<path d="M147.194 187.049C147.165 187.903 128.031 187.335 128.031 187.335L124.889 174.961L129.038 167.748C129.038 167.748 147.973 163.87 147.194 187.049Z" fill="url(#paint1_linear_1181_16990)"/>
<path d="M111.517 165.878C111.518 165.878 111.519 165.878 111.52 165.878C111.791 165.917 112.041 166.069 112.288 166.286C112.526 166.459 112.813 166.662 112.813 166.922V166.927C113.729 168.29 114.332 170.808 114.336 173.627C114.34 177.381 113.272 180.417 111.863 180.767L111.866 180.769C111.771 180.788 110.59 181.399 106.87 180.797C106.771 178.512 106.713 165.575 106.713 165.575C106.713 165.575 109.686 165.355 111.517 165.878Z" fill="url(#paint2_linear_1181_16990)"/>
<path d="M104.094 172.906C104.094 177.2 105.484 180.759 107.169 180.849C108.822 180.937 110.136 177.642 110.133 173.495C110.13 169.352 108.813 165.811 107.164 165.577C105.482 165.338 104.094 168.616 104.094 172.906Z" fill="url(#paint3_linear_1181_16990)"/>
<path d="M105.41 173.005C105.411 176.052 106.337 178.586 107.466 178.66C108.581 178.733 109.472 176.378 109.47 173.401C109.468 170.427 108.575 167.902 107.462 167.758C106.334 167.613 105.41 169.96 105.41 173.005Z" fill="white"/>
<path d="M140.345 175.977C140.346 175.977 140.347 175.978 140.348 175.978C140.679 176.025 140.983 176.21 141.284 176.476C141.574 176.686 141.924 176.933 141.924 177.25V177.257C143.041 178.918 143.776 181.987 143.78 185.423C143.786 189.999 142.484 193.699 140.766 194.125L140.77 194.128C140.654 194.152 139.215 194.897 134.68 194.162C134.559 191.377 134.488 175.609 134.488 175.609C134.488 175.609 138.113 175.341 140.345 175.977Z" fill="url(#paint4_linear_1181_16990)"/>
<path d="M131.291 184.542C131.291 189.777 132.986 194.115 135.04 194.224C137.054 194.331 138.656 190.315 138.652 185.26C138.649 180.211 137.043 175.894 135.032 175.609C132.983 175.318 131.291 179.313 131.291 184.542Z" fill="url(#paint5_linear_1181_16990)"/>
<path d="M132.898 184.665C132.899 188.379 134.028 191.467 135.405 191.558C136.763 191.647 137.85 188.776 137.847 185.148C137.845 181.523 136.756 178.445 135.399 178.27C134.025 178.092 132.898 180.953 132.898 184.665Z" fill="white"/>
<path d="M106.709 135.874L98.2459 137.517C97.623 137.638 97.1542 138.15 97.0829 138.78C95.6231 151.703 96.3442 165.975 96.6409 170.564C96.7009 171.495 97.2535 172.321 98.0903 172.733L102.442 174.876C103.032 175.166 103.721 174.726 103.701 174.069C103.694 173.814 103.689 173.557 103.689 173.297C103.689 168.459 105.041 164.536 106.709 164.536C108.377 164.536 109.729 168.459 109.729 173.297C109.729 174.666 109.621 175.961 109.428 177.115C109.318 177.774 109.653 178.426 110.252 178.721L127.741 187.333C128.293 187.605 128.935 187.195 128.921 186.58C128.914 186.297 128.91 186.012 128.91 185.724C128.91 178.812 130.794 173.208 133.118 173.208C135.442 173.208 137.326 178.812 137.326 185.724C137.326 187.56 137.192 189.302 136.953 190.872C136.869 191.427 137.16 191.972 137.664 192.22L149.891 198.241L156.203 197.767L180.021 132.342L106.709 135.874Z" fill="url(#paint6_linear_1181_16990)"/>
<path d="M156.923 175.558L155.432 140.137C150.472 139.724 106.433 138.878 97.0515 139.066C96.4348 144.656 96.2213 150.482 96.2012 155.656L137.847 164.923L156.923 175.558Z" fill="url(#paint7_linear_1181_16990)"/>
<path d="M102.681 143.663L99.3872 143.479C99.2057 143.469 99.0527 143.613 99.0527 143.795V173.203L102.442 174.872C102.619 174.96 102.807 174.98 102.98 174.948V143.978C102.981 143.811 102.849 143.672 102.681 143.663Z" fill="url(#paint8_linear_1181_16990)"/>
<path d="M102.594 174.562L99.3984 172.988V143.826L102.634 144.007V174.58C102.621 174.574 102.607 174.569 102.594 174.562Z" fill="url(#paint9_linear_1181_16990)"/>
<path d="M120.771 144.67L114.798 144.337C114.545 144.323 114.331 144.522 114.33 144.775C114.302 148.453 114.128 172.938 114.24 180.68L121.191 184.102V145.113C121.19 144.877 121.006 144.683 120.771 144.67Z" fill="url(#paint10_linear_1181_16990)"/>
<path d="M115.096 180.144C115.002 172.134 115.159 149.518 115.19 145.23L120.324 145.516V182.719L115.096 180.144Z" fill="url(#paint11_linear_1181_16990)"/>
<path d="M149.031 146.246L140.115 145.75C139.584 145.72 139.138 146.141 139.139 146.672C139.14 152.648 139.146 184.29 139.141 192.943L149.894 198.237L149.904 198.237V147.17C149.904 146.678 149.52 146.273 149.031 146.246Z" fill="url(#paint12_linear_1181_16990)"/>
<path d="M140.351 192.191C140.353 187.722 140.354 176.197 140.348 147.117V146.977L148.692 147.442V196.299L140.351 192.191Z" fill="url(#paint13_linear_1181_16990)"/>
<path d="M155.437 137.623V140.137L156.034 140.207L156.032 174.612L155.435 174.73L155.434 196.865C155.434 197.563 156.02 198.117 156.717 198.076L204.623 195.322C205.415 195.277 206.034 194.621 206.034 193.827V138.09C206.034 137.1 205.409 136.212 204.472 135.894C190.348 131.096 174.444 131.323 157.166 135.433C156.153 135.674 155.437 136.581 155.437 137.623Z" fill="url(#paint14_linear_1181_16990)"/>
<path d="M206.035 173.798L155.434 174.733V140.141H206.035V173.798Z" fill="url(#paint15_linear_1181_16990)"/>
<path d="M167.768 183.889L163.19 184.065C162.658 184.085 162.227 184.504 162.227 185.001V187.767C162.227 188.264 162.659 188.647 163.19 188.622L167.768 188.411C168.29 188.387 168.713 187.969 168.713 187.478V184.742C168.713 184.251 168.29 183.869 167.768 183.889Z" fill="url(#paint16_linear_1181_16990)"/>
<path d="M201.389 182.602L197.33 182.758C196.859 182.776 196.477 183.169 196.477 183.637V186.241C196.477 186.708 196.859 187.069 197.33 187.048L201.389 186.86C201.852 186.839 202.227 186.447 202.227 185.984V183.408C202.228 182.945 201.852 182.585 201.389 182.602Z" fill="url(#paint17_linear_1181_16990)"/>
<g opacity="0.3">
<path d="M206.033 193.831V138.093C206.033 137.103 205.408 136.216 204.471 135.897C193.402 132.136 181.238 131.464 168.178 133.327C173.9 137.232 176.432 141.316 177.484 144.948C179.647 152.417 175.131 156.494 178.092 164.65C181.407 173.783 189.239 174.645 196.328 182.859C198.783 185.703 201.376 189.691 203.219 195.406L204.622 195.326C205.415 195.28 206.033 194.624 206.033 193.831Z" fill="white"/>
</g>
<path d="M152.393 188.5L158.588 191.565L206.032 189.309V194.518C206.032 195.726 205.096 196.728 203.891 196.81L157.582 199.975C156.162 200.073 154.737 199.887 153.39 199.429L149.891 198.239L150.385 189.668C150.442 188.671 151.498 188.057 152.393 188.5Z" fill="url(#paint18_linear_1181_16990)"/>
<path d="M157.387 193.706V196.622C157.387 197.501 158.125 198.199 159.002 198.149L203.801 195.636C204.278 195.609 204.651 195.215 204.651 194.737V190.998C204.651 190.484 204.222 190.075 203.709 190.099L158.845 192.178C158.029 192.215 157.387 192.888 157.387 193.706Z" fill="url(#paint19_linear_1181_16990)"/>
<path d="M100.932 80.6914C98.345 80.6914 96.252 82.7879 96.252 85.3712C96.252 89.7467 100.932 93.402 100.932 93.402C100.932 93.402 105.612 89.7434 105.612 85.3712C105.615 82.7879 103.519 80.6914 100.932 80.6914ZM100.932 87.6638C99.6671 87.6638 98.6392 86.6359 98.6392 85.3712C98.6392 84.1066 99.6671 83.0787 100.932 83.0787C102.196 83.0787 103.224 84.1066 103.224 85.3712C103.224 86.6393 102.2 87.6638 100.932 87.6638Z" fill="#ED2E53"/>
<path d="M100.931 87.6652C99.6666 87.6652 98.6387 86.6373 98.6387 85.3727C98.6387 84.108 99.6666 83.0801 100.931 83.0801C102.196 83.0801 103.224 84.108 103.224 85.3727C103.224 86.6407 102.199 87.6652 100.931 87.6652Z" fill="white"/>
<path d="M211.729 115.244C209.142 115.244 207.049 117.341 207.049 119.924C207.049 124.299 211.729 127.955 211.729 127.955C211.729 127.955 216.408 124.296 216.408 119.924C216.412 117.341 214.315 115.244 211.729 115.244ZM211.729 122.217C210.464 122.217 209.436 121.189 209.436 119.924C209.436 118.659 210.464 117.631 211.729 117.631C212.993 117.631 214.021 118.659 214.021 119.924C214.021 121.192 212.997 122.217 211.729 122.217Z" fill="#ED2E53"/>
<path d="M211.728 122.218C210.463 122.218 209.436 121.19 209.436 119.925C209.436 118.661 210.463 117.633 211.728 117.633C212.993 117.633 214.021 118.661 214.021 119.925C214.021 121.193 212.996 122.218 211.728 122.218Z" fill="white"/>
<path d="M180.68 22.6804L177.893 19.8926L173.014 24.7713L175.802 27.5592L180.68 22.6804Z" fill="#ADD5F9"/>
<path d="M242.091 84.0828L239.303 81.2949L234.424 86.1737L237.212 88.9616L242.091 84.0828Z" fill="#ADD5F9"/>
<path d="M159.466 -2.20441e-06C158.833 0.559034 158.73 1.51528 159.215 2.192L200.599 60.6407L209.896 52.4023L159.466 -2.20441e-06Z" fill="#F5F6F9"/>
<path d="M261.982 102.518L209.58 52.1016L201.342 61.3992L259.79 102.783C260.467 103.253 261.409 103.15 261.982 102.518Z" fill="#F5F6F9"/>
<path d="M260.384 102.324C259.545 101.647 221.634 70.3999 221.634 70.3999L206.569 55.4824L201.332 61.3817L259.78 102.765C260.472 103.251 261.413 103.148 261.972 102.515C261.987 102.515 261.207 103 260.384 102.324Z" fill="#ADD5F9"/>
<path d="M159.659 1.60858C160.335 2.44713 191.583 40.3586 191.583 40.3586L206.5 55.4232L200.601 60.6605L159.217 2.21176C158.732 1.52032 158.835 0.578774 159.467 0.019738C159.467 0.00502649 158.982 0.770026 159.659 1.60858Z" fill="#ADD5F9"/>
<path d="M236.409 26.8822C236.718 26.5144 236.704 25.9554 236.35 25.617C236.012 25.2787 235.453 25.2493 235.085 25.5582L208.384 48.1844L213.768 53.5688L236.409 26.8822Z" fill="#F5F6F9"/>
<path d="M213.777 53.5778L236.403 26.8765C236.712 26.5087 236.698 25.9497 236.345 25.6113L211.07 50.8857L213.777 53.5778Z" fill="#ADD5F9"/>
<path d="M245.166 63.8984L213.595 47.2598L211.83 51.0112L243.754 64.4428C244.283 64.6781 244.916 64.4281 245.166 63.8984Z" fill="#F5F6F9"/>
<path d="M198.08 16.8105C197.55 17.0606 197.3 17.6932 197.536 18.2376L210.967 50.1615L214.719 48.3961L198.08 16.8105Z" fill="#F5F6F9"/>
<path d="M197.54 18.2317L210.971 50.1556L212.707 49.3318L197.966 17.7904C197.716 17.2608 198.069 16.8047 198.069 16.8047C197.554 17.0695 197.319 17.6874 197.54 18.2317Z" fill="#ADD5F9"/>
<path d="M243.743 64.441L211.819 51.0094L212.643 49.2734L244.184 64.0143C244.714 64.2644 245.17 63.9114 245.17 63.9114C244.92 64.4263 244.287 64.6764 243.743 64.441Z" fill="#ADD5F9"/>
<path d="M192.963 69.0197C201.27 77.3271 214.343 77.723 222.163 69.9039C229.982 62.0848 229.586 49.0116 221.278 40.7041C212.971 32.3966 199.898 32.0008 192.079 39.8199C184.259 47.639 184.655 60.7122 192.963 69.0197Z" fill="#F5F6F9"/>
<path d="M196.506 65.4651C189.532 58.4919 187.841 48.3556 191.577 40.3379C184.28 48.2085 184.825 60.8898 192.96 69.0106C201.081 77.1313 213.762 77.6904 221.633 70.3935C213.615 74.1302 203.479 72.4383 196.506 65.4651Z" fill="#ADD5F9"/>
<path d="M205.524 44.0659L200.169 47.6554L195.917 44.9485L203.273 41.815L205.524 44.0659ZM202.478 41.0206L200.639 39.1816L194.828 41.0059L195.299 44.0806L202.478 41.0206ZM211.276 49.8328L206.259 44.8161L200.919 48.391L206.2 54.8935L211.276 49.8328ZM217.911 56.4529L214.321 61.8079L217.028 66.0595L220.162 58.7038L217.911 56.4529ZM217.896 66.6774L220.971 67.1482L222.795 61.3371L220.956 59.4982L217.896 66.6774ZM207.083 55.7615L213.586 61.0429L217.16 55.7026L212.144 50.686L207.083 55.7615Z" fill="#ADD5F9"/>
<path d="M225.045 90.9856C225.045 95.0399 228.331 98.3266 232.386 98.3266C236.44 98.3266 239.727 95.0399 239.727 90.9856C239.727 86.9312 236.44 83.6445 232.386 83.6445C228.331 83.6445 225.045 86.9312 225.045 90.9856Z" fill="#F5F6F9"/>
<path d="M235.939 94.5369C233.982 96.4936 230.804 96.4936 228.848 94.5369C226.891 92.5803 226.891 89.4026 228.848 87.446C230.804 85.4894 233.982 85.4894 235.939 87.446C237.895 89.4173 237.895 92.5803 235.939 94.5369Z" fill="#ADD5F9"/>
<path d="M163.632 29.5988C163.632 33.6532 166.919 36.9399 170.973 36.9399C175.028 36.9399 178.314 33.6532 178.314 29.5988C178.314 25.5445 175.028 22.2578 170.973 22.2578C166.919 22.2578 163.632 25.5445 163.632 29.5988Z" fill="#F5F6F9"/>
<path d="M165.961 29.583C165.961 32.3536 168.207 34.5996 170.978 34.5996C173.748 34.5996 175.994 32.3536 175.994 29.583C175.994 26.8124 173.748 24.5664 170.978 24.5664C168.207 24.5664 165.961 26.8124 165.961 29.583Z" fill="#ADD5F9"/>
<path d="M212.149 120.737C200.769 95.2318 162.707 52.3826 101.494 85.0296" stroke="white"/>
<path d="M167.642 114.251L164.845 119.494L160.587 119.672C152.713 119.488 146.177 117.866 140.588 114.639L124.543 105.392L122.74 97.9928L131.059 100.546L139.977 95.3633L156.021 104.61C159.274 106.487 161.75 108.739 163.319 111.189L167.642 114.251Z" fill="#5A74E2"/>
<path d="M165.387 118.48L165.117 118.986L164.847 119.493L160.588 119.67C152.714 119.487 146.179 117.864 140.59 114.636L124.545 105.389L122.742 97.9902L123.793 98.3132L124.846 98.6361L126.234 104.33L142.279 113.577C147.868 116.805 154.403 118.427 162.277 118.611L165.387 118.48Z" fill="#365CBA"/>
<path d="M165.388 118.479L165.119 118.986L161.435 119.139C153.561 118.956 147.025 117.335 141.435 114.107L127.148 105.873C126.026 105.226 125.217 104.148 124.911 102.89L123.795 98.3125L124.848 98.6354L125.756 102.36C126.063 103.618 126.871 104.695 127.993 105.342L142.28 113.576C147.87 116.804 154.405 118.427 162.279 118.61L165.388 118.479Z" fill="#4062CD"/>
<path d="M157.226 98.5862C163.438 102.173 167.098 106.978 167.477 112.046L167.643 114.25L163.837 114.161C155.087 113.958 146.779 111.854 140.567 108.267L122.74 97.9933L139.399 88.3125L157.226 98.5862Z" fill="#7A8EFF"/>
<path d="M166.845 112.093L166.91 112.962L166.845 112.093C166.481 107.226 162.952 102.624 156.909 99.1348L144.193 91.8066L156.909 99.1355C162.952 102.625 166.48 107.227 166.845 112.093Z" fill="#A86231"/>
<path d="M139.401 89.0459V89.0449L124.006 97.9924L124.248 98.1319L124.006 97.9924L139.401 89.0459Z" fill="#643211"/>
<path d="M139.42 90.5237L139.401 89.0469L124.006 97.9933L124.248 98.1329L125.293 98.7343L139.42 90.5237Z" fill="#643211"/>
<path d="M166.962 113.604L166.914 112.967L166.962 113.604Z" fill="#884A21"/>
<path d="M139.403 89.0455L144.197 91.8081L139.402 89.0449V89.0459L139.403 89.0455Z" fill="#884A21"/>
<path d="M139.402 89.0455L139.422 90.5224L156.623 100.792C162.599 104.244 166.116 108.782 166.545 113.591L166.962 113.601L166.914 112.963L166.848 112.094C166.484 107.227 162.955 102.626 156.913 99.1364L144.197 91.8075L139.403 89.0449L139.402 89.0455Z" fill="#5A74E2"/>
<path d="M127.854 103.328C127.854 103.734 127.709 104.023 127.476 104.156L127.17 104.334C127.209 104.312 127.242 104.279 127.275 104.245C127.042 104.468 126.67 104.484 126.253 104.245C125.536 103.834 124.963 102.833 124.963 102.016C124.963 101.605 125.107 101.321 125.341 101.188L125.647 101.01C125.88 100.871 126.208 100.893 126.564 101.099C127.275 101.51 127.854 102.511 127.854 103.328Z" fill="#C8CFE8"/>
<path d="M127.858 103.332C127.857 103.739 127.713 104.026 127.481 104.16L127.175 104.339C127.407 104.205 127.551 103.918 127.552 103.511C127.554 102.692 126.978 101.692 126.265 101.281C125.906 101.074 125.581 101.055 125.346 101.191L125.652 101.013C125.887 100.877 126.212 100.896 126.571 101.102C127.284 101.514 127.861 102.513 127.858 103.332Z" fill="#C8CFE8"/>
<path d="M127.169 104.337C127.673 104.045 127.671 103.103 127.166 102.233C126.661 101.364 125.843 100.896 125.34 101.189C124.836 101.482 124.837 102.424 125.342 103.293C125.848 104.162 126.665 104.63 127.169 104.337Z" fill="#EEF0FD"/>
<path d="M126.786 104.071C126.66 104.071 126.514 104.025 126.363 103.937C125.779 103.6 125.287 102.749 125.289 102.078C125.289 101.932 125.322 101.455 125.729 101.455C125.854 101.455 126.001 101.501 126.151 101.588C126.735 101.926 127.227 102.777 127.225 103.448C127.225 103.594 127.192 104.071 126.786 104.071Z" fill="#474746"/>
<path d="M127.075 103.944C127.01 104.018 126.917 104.068 126.786 104.068C126.147 104.068 125.286 102.989 125.289 102.076C125.289 101.935 125.32 101.487 125.686 101.455C125.551 101.606 125.536 101.855 125.536 101.954C125.533 102.624 126.025 103.477 126.609 103.813C126.761 103.901 126.906 103.947 127.032 103.947C127.047 103.947 127.061 103.946 127.075 103.944Z" fill="#B2BBD3"/>
<path d="M131.705 105.55C131.705 105.955 131.561 106.239 131.327 106.378L131.021 106.556C131.06 106.533 131.094 106.5 131.133 106.467C130.893 106.684 130.521 106.706 130.104 106.467C129.393 106.055 128.814 105.055 128.814 104.232C128.82 103.826 128.965 103.537 129.198 103.404L129.498 103.226C129.737 103.093 130.06 103.109 130.421 103.321C131.133 103.732 131.711 104.727 131.705 105.55Z" fill="#C8CFE8"/>
<path d="M131.712 105.547C131.711 105.954 131.567 106.241 131.335 106.375L131.029 106.554C131.261 106.419 131.404 106.132 131.406 105.726C131.407 104.907 130.831 103.907 130.118 103.496C129.76 103.289 129.434 103.27 129.199 103.406L129.505 103.228C129.74 103.091 130.066 103.11 130.424 103.317C131.137 103.729 131.714 104.728 131.712 105.547Z" fill="#C8CFE8"/>
<path d="M131.025 106.556C131.528 106.263 131.527 105.321 131.022 104.452C130.517 103.583 129.699 103.115 129.195 103.408C128.691 103.7 128.693 104.642 129.198 105.512C129.703 106.381 130.521 106.849 131.025 106.556Z" fill="#EEF0FD"/>
<path d="M130.641 106.289C130.516 106.289 130.369 106.243 130.218 106.156C129.634 105.819 129.143 104.968 129.145 104.297C129.145 104.151 129.178 103.674 129.584 103.674C129.71 103.674 129.856 103.72 130.007 103.807C130.591 104.144 131.083 104.996 131.081 105.666C131.08 105.813 131.047 106.289 130.641 106.289Z" fill="#474746"/>
<path d="M130.931 106.163C130.866 106.237 130.773 106.287 130.641 106.287C130.515 106.287 130.37 106.241 130.218 106.154C129.634 105.817 129.142 104.966 129.145 104.295C129.145 104.154 129.175 103.706 129.541 103.674C129.406 103.825 129.391 104.074 129.391 104.172C129.389 104.843 129.881 105.695 130.465 106.032C130.616 106.119 130.762 106.165 130.888 106.165C130.902 106.165 130.916 106.164 130.931 106.163Z" fill="#B2BBD3"/>
<path d="M135.561 107.769C135.561 108.18 135.416 108.464 135.183 108.597L134.877 108.775C134.882 108.775 134.882 108.77 134.888 108.764C134.655 108.909 134.321 108.898 133.96 108.686C133.242 108.275 132.67 107.28 132.67 106.457C132.67 106.051 132.814 105.762 133.048 105.629L133.354 105.451C133.587 105.318 133.915 105.334 134.271 105.54C134.983 105.951 135.561 106.952 135.561 107.769Z" fill="#C8CFE8"/>
<path d="M135.559 107.774C135.559 108.181 135.414 108.467 135.183 108.602L134.877 108.78C135.108 108.646 135.252 108.359 135.253 107.952C135.255 107.133 134.679 106.133 133.966 105.722C133.607 105.515 133.282 105.496 133.047 105.632L133.353 105.455C133.588 105.318 133.913 105.337 134.272 105.544C134.985 105.956 135.562 106.955 135.559 107.774Z" fill="#C8CFE8"/>
<path d="M134.876 108.781C135.38 108.488 135.378 107.546 134.873 106.677C134.368 105.807 133.55 105.34 133.047 105.632C132.543 105.925 132.544 106.867 133.05 107.736C133.555 108.606 134.373 109.073 134.876 108.781Z" fill="#EEF0FD"/>
<path d="M134.493 108.514C134.367 108.514 134.221 108.468 134.07 108.381C133.486 108.043 132.994 107.192 132.996 106.521C132.997 106.375 133.029 105.898 133.436 105.898C133.561 105.898 133.708 105.945 133.859 106.032C134.442 106.369 134.934 107.22 134.932 107.891C134.932 108.037 134.899 108.514 134.493 108.514Z" fill="#474746"/>
<path d="M134.782 108.388C134.717 108.461 134.624 108.512 134.493 108.512C134.367 108.512 134.221 108.466 134.07 108.379C133.486 108.042 132.994 107.19 132.996 106.52C132.996 106.378 133.027 105.93 133.393 105.898C133.258 106.05 133.243 106.298 133.243 106.397C133.24 107.068 133.732 107.92 134.316 108.256C134.468 108.344 134.613 108.39 134.739 108.39C134.754 108.39 134.768 108.389 134.782 108.388Z" fill="#B2BBD3"/>
<path d="M139.42 109.998C139.42 110.404 139.275 110.693 139.042 110.826L138.736 111.004C138.775 110.982 138.808 110.949 138.842 110.915C138.608 111.138 138.236 111.154 137.819 110.915C137.107 110.504 136.529 109.503 136.529 108.686C136.535 108.275 136.679 107.991 136.913 107.858L137.213 107.68C137.452 107.541 137.774 107.563 138.136 107.769C138.847 108.18 139.426 109.181 139.42 109.998Z" fill="#C8CFE8"/>
<path d="M139.425 109.998C139.424 110.405 139.28 110.692 139.048 110.826L138.742 111.005C138.974 110.871 139.117 110.584 139.119 110.177C139.12 109.358 138.544 108.358 137.831 107.947C137.472 107.74 137.147 107.721 136.912 107.857L137.218 107.679C137.453 107.543 137.778 107.562 138.137 107.768C138.85 108.18 139.427 109.179 139.425 109.998Z" fill="#C8CFE8"/>
<path d="M138.739 111.007C139.243 110.715 139.242 109.773 138.737 108.903C138.231 108.034 137.414 107.566 136.91 107.859C136.406 108.151 136.408 109.093 136.913 109.963C137.418 110.832 138.236 111.3 138.739 111.007Z" fill="#EEF0FD"/>
<path d="M138.356 110.741C138.23 110.741 138.084 110.695 137.933 110.607C137.349 110.27 136.857 109.419 136.859 108.748C136.86 108.602 136.893 108.125 137.299 108.125C137.425 108.125 137.571 108.171 137.722 108.258C138.306 108.595 138.798 109.447 138.796 110.118C138.795 110.264 138.762 110.741 138.356 110.741Z" fill="#474746"/>
<path d="M138.645 110.614C138.581 110.688 138.488 110.738 138.356 110.738C138.23 110.738 138.084 110.692 137.933 110.606C137.349 110.268 136.857 109.417 136.859 108.746C136.859 108.605 136.89 108.157 137.256 108.125C137.121 108.276 137.106 108.525 137.106 108.624C137.104 109.294 137.596 110.147 138.18 110.483C138.331 110.571 138.477 110.617 138.603 110.617C138.617 110.617 138.631 110.615 138.645 110.614Z" fill="#B2BBD3"/>
<path d="M166.958 113.596V113.597L165.271 113.558L163.987 113.528L163.851 113.524C162.32 113.488 160.805 113.395 159.314 113.244C158.803 113.194 158.294 113.137 157.789 113.07C155.697 112.806 153.659 112.427 151.701 111.943C150.933 111.754 150.177 111.549 149.434 111.325H149.433C146.309 110.395 143.425 109.182 140.884 107.715L125.291 98.7275L126.833 97.8315L127.458 97.4674L129.586 96.231L130.211 95.8684L132.339 94.632L132.964 94.2679L135.09 93.0332L135.717 92.6691L137.843 91.4327L138.468 91.0701L139.418 90.5176L156.62 100.787C159.073 102.205 161.114 103.806 162.696 105.535C163.131 106.01 163.531 106.494 163.896 106.988C164.776 108.178 165.45 109.418 165.903 110.69C166.009 110.991 166.104 111.295 166.186 111.599C166.363 112.254 166.482 112.918 166.542 113.586L166.958 113.596Z" fill="#A86231"/>
<path d="M163.894 106.994L137.842 91.4388L138.467 91.0762L162.694 105.541C163.13 106.016 163.53 106.5 163.894 106.994Z" fill="#884A21"/>
<path d="M166.188 111.6L135.092 93.034L135.719 92.6699L165.905 110.691C166.01 110.992 166.105 111.296 166.188 111.6Z" fill="#884A21"/>
<path d="M165.27 113.561L163.986 113.531L132.338 94.6356L132.963 94.2715L165.27 113.561Z" fill="#884A21"/>
<path d="M165.27 113.561L163.986 113.531L132.338 94.6356L132.963 94.2715L165.27 113.561Z" fill="#884A21"/>
<path d="M165.274 113.561L164.824 113.55L132.748 94.3997L132.967 94.2715L165.274 113.561Z" fill="#51250C"/>
<path d="M159.318 113.249C158.807 113.198 158.299 113.141 157.794 113.075L129.59 96.2356L130.215 95.873L159.318 113.249Z" fill="#884A21"/>
<path d="M159.318 113.249C159.106 113.228 158.894 113.206 158.683 113.182L129.949 96.0266L130.215 95.873L159.318 113.249Z" fill="#51250C"/>
<path d="M151.702 111.948C150.935 111.76 150.178 111.554 149.435 111.331H149.434L126.834 97.8368L127.459 97.4727L151.702 111.948Z" fill="#884A21"/>
<path d="M151.701 111.948C151.337 111.859 150.975 111.766 150.617 111.668L127.146 97.6546L127.458 97.4727L151.701 111.948Z" fill="#51250C"/>
<path d="M139.604 103.512L146.322 107.391C148.42 108.602 151.809 108.602 153.893 107.391C154.927 106.789 155.445 106.002 155.448 105.214L155.455 102.715C155.453 103.503 154.934 104.29 153.9 104.891C151.816 106.102 148.428 106.102 146.329 104.891L139.611 101.012C139.278 100.82 139.111 100.569 139.111 100.316L139.102 103.709L139.104 102.816C139.104 103.069 139.271 103.32 139.604 103.512Z" fill="#DCE0F4"/>
<path d="M155.447 106.107L155.45 105.213L155.447 106.107Z" fill="#DEDFFB"/>
<path d="M153.893 107.389C151.809 108.6 148.42 108.6 146.322 107.389L139.604 103.51C139.271 103.319 139.104 103.068 139.104 102.814L139.102 103.707C139.102 103.96 139.268 104.213 139.601 104.405L146.32 108.285C149.638 110.2 155.437 108.875 155.445 106.107L155.448 105.213C155.445 106.001 154.927 106.788 153.893 107.389Z" fill="#C8CFE8"/>
<path d="M153.875 100.506C155.972 101.717 155.983 103.68 153.9 104.891C151.816 106.102 148.427 106.102 146.33 104.891L139.611 101.011C138.948 100.629 138.945 100.008 139.603 99.6259L144.764 96.6267C145.422 96.2442 146.493 96.2442 147.155 96.6267L153.875 100.506Z" fill="#F3F1FC"/>
<path d="M152.44 105.495C152.2 105.562 151.953 105.619 151.7 105.663C149.866 105.991 147.788 105.733 146.331 104.892L139.613 101.012C138.95 100.631 138.946 100.01 139.605 99.627L144.766 96.6287C145.231 96.3579 145.901 96.2789 146.488 96.3913C146.733 96.4371 146.963 96.5163 147.158 96.6287L147.245 96.6793L142.647 99.3515C141.989 99.7331 141.992 100.354 142.655 100.737L149.374 104.615C150.238 105.114 151.32 105.407 152.44 105.495Z" fill="#C8CFE8"/>
<path d="M152.435 105.493C152.194 105.559 151.947 105.616 151.694 105.661C150.306 105.668 148.911 105.366 147.847 104.752L141.129 100.872C140.465 100.49 140.462 99.8697 141.121 99.4867L146.281 96.4868C146.345 96.4504 146.413 96.4172 146.482 96.3887C146.728 96.4345 146.957 96.5137 147.152 96.6261L147.239 96.6767L142.642 99.3489C141.983 99.7304 141.986 100.351 142.65 100.734L149.368 104.613C150.233 105.111 151.314 105.404 152.435 105.493Z" fill="#DCE0F4"/>
<path d="M147.056 105.246L147.048 107.745C146.795 107.642 146.551 107.527 146.324 107.396L144.312 106.234L144.319 103.734L146.331 104.896C146.559 105.027 146.802 105.143 147.056 105.246Z" fill="#474746"/>
<path d="M147.05 107.322L147.048 107.746C146.795 107.643 146.551 107.526 146.325 107.396L144.312 106.234L144.319 103.734L144.759 103.989L144.755 105.503C144.755 105.816 144.922 106.106 145.193 106.263L146.766 107.171C146.858 107.225 146.953 107.276 147.05 107.322Z" fill="#232323"/>
<path d="M150.232 105.801L150.225 108.301C149.282 108.313 148.334 108.181 147.486 107.906L147.493 105.406C148.341 105.682 149.289 105.813 150.232 105.801Z" fill="#474746"/>
<path d="M150.233 105.797L150.227 108.297C149.284 108.309 148.335 108.178 147.488 107.903L147.49 107.57C148.042 107.712 148.627 107.795 149.217 107.821C149.507 107.833 149.746 107.598 149.747 107.309L149.751 105.791C149.91 105.797 150.072 105.799 150.233 105.797Z" fill="#232323"/>
<path d="M140.694 101.638L140.687 104.137L139.603 103.512C139.272 103.321 139.105 103.071 139.104 102.819V102.816L139.111 100.316C139.111 100.569 139.277 100.821 139.611 101.012L140.694 101.638Z" fill="#474746"/>
<path d="M140.688 103.801L140.687 104.138L139.604 103.511C139.271 103.321 139.105 103.071 139.104 102.819V102.816L139.111 100.316C139.111 100.511 139.21 100.703 139.404 100.867L139.398 102.65V102.653C139.4 102.905 139.566 103.153 139.898 103.345L140.688 103.801Z" fill="#232323"/>
<path d="M143.874 103.476L143.867 105.976L141.131 104.396L141.138 101.896L143.874 103.476Z" fill="#474746"/>
<path d="M143.868 105.487L143.866 105.976L141.129 104.396L141.137 101.898L141.572 102.15L141.567 103.692C141.566 103.981 141.72 104.248 141.97 104.392L143.868 105.487Z" fill="#232323"/>
<path d="M153.424 105.141L153.417 107.64C152.606 108.011 151.652 108.226 150.674 108.285L150.682 105.786C151.659 105.727 152.613 105.511 153.424 105.141Z" fill="#474746"/>
<path d="M153.424 105.139L153.417 107.638C152.607 108.009 151.652 108.226 150.674 108.284L150.675 107.956C151.207 107.898 151.725 107.793 152.211 107.641C152.667 107.499 152.981 107.084 152.982 106.607L152.985 105.317C153.135 105.264 153.281 105.204 153.424 105.139Z" fill="#232323"/>
<path d="M155.453 102.719L155.446 105.218C155.444 106.006 154.925 106.793 153.891 107.395C153.88 107.401 153.87 107.406 153.859 107.412L153.866 104.913C153.877 104.907 153.888 104.901 153.898 104.895C154.932 104.293 155.451 103.507 155.453 102.719Z" fill="#474746"/>
<path d="M155.452 102.719L155.446 105.218C155.444 106.005 154.925 106.792 153.891 107.395C153.88 107.4 153.869 107.406 153.859 107.413V107.164C154.714 106.589 155.142 105.875 155.143 105.158L155.148 103.746C155.349 103.414 155.45 103.067 155.452 102.719Z" fill="#232323"/>
<path d="M148.456 62.8377C148.359 62.7756 148.23 62.8036 148.168 62.9011L127.319 95.4582C127.214 95.7067 127.716 95.7603 127.822 95.4472L148.52 63.1265C148.582 63.0295 148.554 62.9 148.456 62.8377Z" fill="#DCE0F4"/>
<path d="M146.664 95.4148C146.697 97.4203 146.749 99.1079 146.824 100.386C142.293 97.2541 137.568 94.4728 132.623 92.0926C133.462 91.3167 134.291 90.3364 135.114 89.1713C135.327 88.8692 135.539 88.5565 135.75 88.2305C138.586 83.8699 141.13 77.6355 142.944 72.7826C143.068 72.4515 143.192 72.1176 143.316 71.7812C144.477 68.6265 145.643 65.2236 146.824 61.6309C146.786 65.5284 146.742 69.5012 146.705 73.3671C146.7 73.8501 146.696 74.3316 146.692 74.8106C146.645 79.7679 146.632 82.8148 146.626 83.8394C146.61 87.5892 146.612 91.021 146.643 93.9171V93.9185C146.649 94.4359 146.657 94.9345 146.664 95.4148Z" fill="#FCD441"/>
<path d="M146.725 98.1759C146.753 99.0419 146.785 99.8113 146.825 100.471C142.294 97.3385 137.569 94.5571 132.623 92.1761C133.462 91.4005 134.292 90.4206 135.115 89.2554C135.327 88.9531 135.539 88.6413 135.751 88.3151C138.585 83.9592 141.126 77.7264 142.945 72.8676C143.068 72.5352 143.191 72.2026 143.317 71.8655C144.477 68.7105 145.644 65.3084 146.825 61.7148C146.802 64.0246 146.777 66.3612 146.753 68.6851C146.738 70.2839 146.72 71.8766 146.706 73.4517C146.701 73.9345 146.696 74.4158 146.693 74.8954C146.693 74.9714 146.692 75.0473 146.692 75.1234C145.132 79.0484 143.049 83.8063 140.733 87.3652C140.521 87.6913 140.309 88.0032 140.097 88.3056C139.274 89.4707 138.446 90.4506 137.605 91.2263C140.713 92.7223 143.735 94.3766 146.676 96.1782C146.69 96.8906 146.707 97.557 146.725 98.1759Z" fill="#EFAE1D"/>
<path d="M146.673 96.1749C146.688 96.8873 146.705 97.5537 146.723 98.1726C144.107 96.4694 141.427 94.8826 138.678 93.4216C136.966 92.5119 136.456 90.3121 137.577 88.7307C137.586 88.7188 137.594 88.7069 137.602 88.6948C137.816 88.394 138.028 88.0806 138.239 87.7544C141.066 83.4093 143.62 77.1605 145.432 72.3069C145.557 71.9761 145.681 71.642 145.804 71.3048C146.119 70.4483 146.436 69.5745 146.751 68.6816C146.735 70.2805 146.718 71.8731 146.703 73.4482C146.698 74.0072 146.692 74.5641 146.689 75.1188C146.689 75.1192 146.689 75.1195 146.689 75.1199C145.13 79.045 143.046 83.8029 140.731 87.3618C140.519 87.6879 140.306 87.9998 140.094 88.3021C140.086 88.3138 140.078 88.3255 140.07 88.337C138.947 89.9213 139.462 92.1212 141.177 93.0328C143.04 94.0234 144.872 95.0715 146.673 96.1749Z" fill="#FEC226"/>
<path d="M146.667 95.4187C146.633 95.3976 146.6 95.3712 146.57 95.3395C143.598 92.2177 139.851 90.2017 135.117 89.1751C135.33 88.8731 135.542 88.5603 135.753 88.2344C140.155 89.253 143.732 91.12 146.646 93.9211V93.9225C146.652 94.4398 146.66 94.9384 146.667 95.4187Z" fill="#FA3E3D"/>
<path d="M146.637 82.5109C146.634 82.9582 146.633 83.4028 146.63 83.8435C146.622 83.8382 146.614 83.8329 146.608 83.8263C144.565 82.1389 142.299 81.1466 139.688 80.7983C139.835 80.4698 139.984 80.136 140.132 79.7969C142.52 80.1663 144.703 81.0768 146.637 82.5109Z" fill="#FA3E3D"/>
<path d="M146.709 73.369C146.703 73.8519 146.7 74.3335 146.696 74.8125C146.668 74.7927 146.642 74.769 146.618 74.7426C145.705 73.7319 144.439 73.059 142.947 72.7846C143.071 72.4535 143.195 72.1196 143.319 71.7832C144.622 72.0494 145.772 72.5892 146.709 73.369Z" fill="#FA3E3D"/>
<path d="M149.265 61.445L149.218 101.343C149.217 101.541 149.087 101.739 148.826 101.891C148.302 102.195 147.45 102.196 146.921 101.891C146.655 101.737 146.523 101.536 146.523 101.335L146.571 61.4375C146.57 61.6384 146.809 61.6372 147.075 61.7905C147.603 62.0954 148.301 62.1505 148.824 61.8461C149.085 61.6948 149.264 61.6435 149.265 61.445Z" fill="#333333"/>
<path d="M146.573 61.4993C146.572 61.4976 146.57 61.4976 146.568 61.4961V61.4375C146.568 61.4581 146.57 61.4787 146.573 61.4993Z" fill="#070707"/>
<path d="M149.263 61.4473L149.215 101.344C149.215 101.543 149.086 101.741 148.824 101.893C148.3 102.197 147.447 102.197 146.92 101.893C146.681 101.755 146.55 101.58 146.527 101.399C147.051 101.598 147.761 101.565 148.22 101.299C148.481 101.147 148.611 100.949 148.612 100.75L148.658 62.0963C148.734 62.0677 148.805 62.033 148.872 61.995C149.132 61.8429 149.263 61.645 149.263 61.4473Z" fill="#070707"/>
<path d="M148.659 60.8594L148.657 62.1021C148.136 62.3 147.427 62.2668 146.966 62.0008C146.727 61.863 146.596 61.6858 146.572 61.5069C147.096 61.7063 147.807 61.6731 148.266 61.4071C148.527 61.2552 148.657 61.0573 148.659 60.8594Z" fill="#070707"/>
<path d="M148.865 60.8945C149.393 61.1995 149.395 61.6935 148.871 61.9979C148.347 62.3023 147.494 62.3029 146.966 61.9979C146.438 61.693 146.436 61.1989 146.96 60.8945C147.484 60.5901 148.336 60.5896 148.865 60.8945Z" fill="#474746"/>
<path d="M150.051 75.8052C150.04 75.4216 150.029 75.0399 150.016 74.6636C149.851 69.81 149.514 65.6053 148.991 63.4785C150.894 69.2721 151.083 70.9671 153.783 78.4466V78.4484C156.849 87.0143 160.062 95.6423 163.463 104.4V104.402C163.741 105.12 164.019 105.83 164.297 106.543C165.417 109.413 166.537 112.24 167.655 115.025C160.691 109.451 154.157 104.511 148.66 101.089C149.096 100.68 149.442 98.5753 149.689 95.536C149.718 95.1652 149.747 94.7816 149.775 94.3853C150.16 88.7271 150.206 81.4303 150.051 75.8052Z" fill="#FCD441"/>
<path d="M150.05 75.8059C150.039 75.4227 150.028 75.0397 150.015 74.6645C149.849 69.8107 149.513 65.6061 148.989 63.4785C150.189 67.1274 151.104 70.5469 152.241 74.0281C152.683 75.3891 153.045 76.4049 153.781 78.4463V78.4495C154.041 79.173 154.299 79.8949 154.558 80.6135C154.558 82.4788 154.429 97.7829 153.086 99.0388C156.529 101.182 160.381 103.923 164.489 107.041C165.005 108.358 165.519 109.666 166.032 110.966C166.574 112.329 167.113 113.682 167.653 115.026C160.689 109.452 154.156 104.511 148.658 101.091C149.095 100.681 149.44 98.5766 149.687 95.5371C149.716 95.1651 149.746 94.782 149.773 94.3862C150.084 89.8307 150.24 82.786 150.05 75.8059Z" fill="#EFAE1D"/>
<path d="M166.035 110.967C161.484 107.405 157.179 104.203 153.302 101.628C152.004 100.767 151.323 99.2358 151.555 97.6957C152.401 92.0772 152.427 80.7237 152.265 74.7812C152.257 74.5295 152.251 74.2778 152.243 74.0293C152.685 75.3903 153.048 76.4061 153.783 78.4476V78.4507C154.043 79.1742 154.301 79.8961 154.561 80.6147C154.561 84.7739 154.387 92.5769 153.769 96.671C153.537 98.2085 154.214 99.739 155.509 100.599C158.304 102.455 161.321 104.636 164.491 107.042C165.007 108.359 165.522 109.667 166.035 110.967Z" fill="#FEC226"/>
<path d="M153.784 78.443C152.903 77.3432 151.692 76.4834 150.052 75.8017C150.041 75.4181 150.03 75.0365 150.018 74.6602C151.176 75.1055 152.168 75.6363 153.004 76.2598C153.264 76.9906 153.523 77.7177 153.784 78.443Z" fill="#FA3E3D"/>
<path d="M158.292 90.7948C156.129 88.2408 153.279 86.0466 150.123 84.4996C150.127 84.1143 150.13 83.7288 150.132 83.3398C152.27 84.3361 154.893 85.8939 157.351 88.2589C157.663 89.1079 157.978 89.9531 158.292 90.7948Z" fill="#FA3E3D"/>
<path d="M164.298 106.544C158.746 101.56 153.934 97.9352 149.689 95.5375C149.719 95.1666 149.748 94.7831 149.775 94.3867C153.801 96.6008 158.313 99.9039 163.463 104.401V104.403C163.741 105.121 164.02 105.832 164.298 106.544Z" fill="#FA3E3D"/>
<path d="M156.902 113.25L149.037 62.5496C149.019 62.4354 148.912 62.3591 148.798 62.3752C148.684 62.3932 148.606 62.4999 148.624 62.614L156.479 113.25C156.479 113.431 156.902 113.431 156.902 113.25Z" fill="#DCE0F4"/>
<path d="M149.734 115.391C148.677 115.106 147.894 114.762 147.866 114.962C147.838 115.162 148.684 115.81 149.74 116.095C150.798 116.381 151.666 116.196 151.694 115.996C151.722 115.796 150.792 115.677 149.734 115.391Z" fill="white"/>
<path d="M151.578 116.112C151.232 116.2 150.619 116.215 149.926 116.027C148.892 115.747 148.059 115.123 148.051 114.908C147.938 114.893 147.872 114.907 147.864 114.962C147.838 115.161 148.682 115.808 149.738 116.094C150.584 116.323 151.308 116.252 151.578 116.112Z" fill="#DCE0F4"/>
<path d="M146.478 114.193C146.186 114.058 145.962 114.019 145.928 114.102C145.894 114.185 146.073 114.47 146.365 114.605C146.657 114.74 146.95 114.676 146.984 114.593C147.019 114.509 146.77 114.329 146.478 114.193Z" fill="white"/>
<path d="M146.909 114.646C146.795 114.667 146.632 114.652 146.471 114.577C146.178 114.442 145.999 114.158 146.034 114.077C146.035 114.07 146.04 114.062 146.049 114.058C145.986 114.052 145.94 114.069 145.93 114.104C145.896 114.185 146.075 114.469 146.367 114.604C146.587 114.703 146.802 114.693 146.909 114.646Z" fill="#DCE0F4"/>
<path d="M144.795 88.2245C144.139 88.2245 143.609 88.7547 143.609 89.41C143.609 89.083 143.476 88.7857 143.263 88.5711C143.048 88.3577 142.751 88.2245 142.424 88.2245C142.751 88.2245 143.048 88.0914 143.263 87.878C143.476 87.6634 143.609 87.3662 143.609 87.0391C143.609 87.3661 143.742 87.6634 143.956 87.878C144.17 88.0914 144.468 88.2245 144.795 88.2245Z" fill="white"/>
<path d="M287.698 82.7028C288.722 80.9297 290.329 79.4618 292.518 78.2993C294.707 77.1367 297.238 76.5889 300.112 76.655C302.985 76.7215 305.878 77.595 308.79 79.276C311.496 80.8384 313.597 82.7175 315.092 84.9119C316.587 87.1068 317.403 89.3885 317.542 91.7576C317.679 94.127 317.167 96.3192 316.003 98.3349C315.087 99.9216 313.962 101.126 312.628 101.949C311.295 102.772 309.934 103.361 308.546 103.717C307.159 104.073 304.724 104.615 301.243 105.343C300.274 105.555 299.472 105.77 298.836 105.988C298.2 106.205 297.684 106.442 297.287 106.698C296.89 106.955 296.535 107.235 296.223 107.54C295.91 107.844 295.387 108.395 294.654 109.191C293.178 110.927 291.507 111.257 289.641 110.179C288.67 109.619 288.037 108.83 287.741 107.813C287.444 106.796 287.658 105.662 288.38 104.411C289.285 102.843 290.311 101.625 291.459 100.758C292.607 99.8901 293.833 99.2539 295.137 98.8497C296.44 98.4449 298.118 98.039 300.171 97.631C301.968 97.2754 303.287 96.9853 304.126 96.7604C304.965 96.5356 305.755 96.2019 306.497 95.7584C307.238 95.3154 307.829 94.7114 308.271 93.9459C309.133 92.4528 309.305 90.8723 308.787 89.2045C308.269 87.537 307.133 86.1962 305.379 85.1834C303.325 83.9978 301.515 83.6429 299.946 84.1187C298.377 84.5941 296.675 85.6459 294.84 87.2737C292.987 89.0167 291.174 89.3758 289.401 88.3522C288.356 87.7485 287.687 86.871 287.394 85.7188C287.101 84.5667 287.203 83.5615 287.698 82.7028ZM283.645 121.276C282.506 120.618 281.725 119.676 281.302 118.448C280.878 117.221 281.049 115.945 281.814 114.619C282.493 113.443 283.474 112.691 284.759 112.363C286.044 112.034 287.283 112.215 288.478 112.905C289.654 113.584 290.411 114.556 290.751 115.822C291.089 117.088 290.92 118.309 290.241 119.485C289.487 120.791 288.474 121.575 287.203 121.837C285.932 122.098 284.746 121.912 283.645 121.276Z" fill="#EDEEF1"/>
<path d="M18.6351 109.27C27.2702 109.27 34.2703 102.27 34.2703 93.6351C34.2703 85.0001 27.2702 78 18.6351 78C10.0001 78 3 85.0001 3 93.6351C3 102.27 10.0001 109.27 18.6351 109.27Z" stroke="#EDEEF1" strokeWidth="6" stroke-miterlimit="10" strokeLinecap="round" strokeLinejoin="round"/>
<path d="M25.5859 107.533L37.7466 119.694C39.6576 121.605 42.7846 121.605 44.6956 119.694C46.6065 117.783 46.6065 114.656 44.6956 112.745L32.5349 100.584" stroke="#EDEEF1" strokeWidth="6" stroke-miterlimit="10" strokeLinecap="round" strokeLinejoin="round"/>
<defs>
<linearGradient id="paint0_linear_1181_16990" x1="102.978" y1="168.536" x2="117.837" y2="168.536" gradientUnits="userSpaceOnUse">
<stop stop-color="#40447E"/>
<stop offset="0.9964" stop-color="#3C3B6B"/>
</linearGradient>
<linearGradient id="paint1_linear_1181_16990" x1="124.889" y1="177.512" x2="147.218" y2="177.512" gradientUnits="userSpaceOnUse">
<stop stop-color="#40447E"/>
<stop offset="0.9964" stop-color="#3C3B6B"/>
</linearGradient>
<linearGradient id="paint2_linear_1181_16990" x1="114.335" y1="173.296" x2="106.712" y2="173.296" gradientUnits="userSpaceOnUse">
<stop stop-color="#444B8C"/>
<stop offset="0.9964" stop-color="#3E4177"/>
</linearGradient>
<linearGradient id="paint3_linear_1181_16990" x1="100.49" y1="160.226" x2="111.338" y2="181.493" gradientUnits="userSpaceOnUse">
<stop stop-color="#EBEFF2"/>
<stop offset="0.9946" stop-color="#B7C0CE"/>
</linearGradient>
<linearGradient id="paint4_linear_1181_16990" x1="143.78" y1="185.019" x2="134.489" y2="185.019" gradientUnits="userSpaceOnUse">
<stop stop-color="#444B8C"/>
<stop offset="0.9964" stop-color="#3E4177"/>
</linearGradient>
<linearGradient id="paint5_linear_1181_16990" x1="126.899" y1="169.087" x2="140.121" y2="195.009" gradientUnits="userSpaceOnUse">
<stop stop-color="#EBEFF2"/>
<stop offset="0.9946" stop-color="#B7C0CE"/>
</linearGradient>
<linearGradient id="paint6_linear_1181_16990" x1="96.1991" y1="165.291" x2="180.021" y2="165.291" gradientUnits="userSpaceOnUse">
<stop stop-color="#FCB148"/>
<stop offset="0.0521" stop-color="#FDBA46"/>
<stop offset="0.1424" stop-color="#FFC244"/>
<stop offset="0.3183" stop-color="#FFC444"/>
<stop offset="0.4849" stop-color="#FDB946"/>
<stop offset="0.7754" stop-color="#F99C4D"/>
<stop offset="0.8658" stop-color="#F8924F"/>
<stop offset="1" stop-color="#F8924F"/>
</linearGradient>
<linearGradient id="paint7_linear_1181_16990" x1="99.3225" y1="185.635" x2="132.003" y2="152.177" gradientUnits="userSpaceOnUse">
<stop stop-color="#40447E"/>
<stop offset="0.9964" stop-color="#3C3B6B"/>
</linearGradient>
<linearGradient id="paint8_linear_1181_16990" x1="99.0531" y1="159.22" x2="102.981" y2="159.22" gradientUnits="userSpaceOnUse">
<stop stop-color="#FCB148"/>
<stop offset="0.0521" stop-color="#FDBA46"/>
<stop offset="0.1424" stop-color="#FFC244"/>
<stop offset="0.3183" stop-color="#FFC444"/>
<stop offset="0.4849" stop-color="#FDB946"/>
<stop offset="0.7754" stop-color="#F99C4D"/>
<stop offset="0.8658" stop-color="#F8924F"/>
<stop offset="1" stop-color="#F8924F"/>
</linearGradient>
<linearGradient id="paint9_linear_1181_16990" x1="99.3983" y1="159.203" x2="102.634" y2="159.203" gradientUnits="userSpaceOnUse">
<stop stop-color="#40447E"/>
<stop offset="0.9964" stop-color="#3C3B6B"/>
</linearGradient>
<linearGradient id="paint10_linear_1181_16990" x1="114.203" y1="164.219" x2="121.19" y2="164.219" gradientUnits="userSpaceOnUse">
<stop stop-color="#FCB148"/>
<stop offset="0.0521" stop-color="#FDBA46"/>
<stop offset="0.1424" stop-color="#FFC244"/>
<stop offset="0.3183" stop-color="#FFC444"/>
<stop offset="0.4849" stop-color="#FDB946"/>
<stop offset="0.7754" stop-color="#F99C4D"/>
<stop offset="0.8658" stop-color="#F8924F"/>
<stop offset="1" stop-color="#F8924F"/>
</linearGradient>
<linearGradient id="paint11_linear_1181_16990" x1="115.067" y1="163.975" x2="120.324" y2="163.975" gradientUnits="userSpaceOnUse">
<stop stop-color="#40447E"/>
<stop offset="0.9964" stop-color="#3C3B6B"/>
</linearGradient>
<linearGradient id="paint12_linear_1181_16990" x1="139.138" y1="171.992" x2="149.904" y2="171.992" gradientUnits="userSpaceOnUse">
<stop stop-color="#FCB148"/>
<stop offset="0.0521" stop-color="#FDBA46"/>
<stop offset="0.1424" stop-color="#FFC244"/>
<stop offset="0.3183" stop-color="#FFC444"/>
<stop offset="0.4849" stop-color="#FDB946"/>
<stop offset="0.7754" stop-color="#F99C4D"/>
<stop offset="0.8658" stop-color="#F8924F"/>
<stop offset="1" stop-color="#F8924F"/>
</linearGradient>
<linearGradient id="paint13_linear_1181_16990" x1="140.348" y1="171.638" x2="148.692" y2="171.638" gradientUnits="userSpaceOnUse">
<stop stop-color="#40447E"/>
<stop offset="0.9964" stop-color="#3C3B6B"/>
</linearGradient>
<linearGradient id="paint14_linear_1181_16990" x1="188.48" y1="186.08" x2="153.55" y2="101.695" gradientUnits="userSpaceOnUse">
<stop stop-color="#FCB148"/>
<stop offset="0.0521" stop-color="#FDBA46"/>
<stop offset="0.1424" stop-color="#FFC244"/>
<stop offset="0.3183" stop-color="#FFC444"/>
<stop offset="0.4849" stop-color="#FDB946"/>
<stop offset="0.7754" stop-color="#F99C4D"/>
<stop offset="0.8658" stop-color="#F8924F"/>
<stop offset="1" stop-color="#F8924F"/>
</linearGradient>
<linearGradient id="paint15_linear_1181_16990" x1="155.433" y1="157.437" x2="206.034" y2="157.437" gradientUnits="userSpaceOnUse">
<stop stop-color="#40447E"/>
<stop offset="0.9964" stop-color="#3C3B6B"/>
</linearGradient>
<linearGradient id="paint16_linear_1181_16990" x1="166.474" y1="181.25" x2="162.9" y2="199.003" gradientUnits="userSpaceOnUse">
<stop offset="0.00359712" stop-color="#E38DDD"/>
<stop offset="1" stop-color="#9571F6"/>
</linearGradient>
<linearGradient id="paint17_linear_1181_16990" x1="198.761" y1="187.75" x2="195.187" y2="205.503" gradientUnits="userSpaceOnUse">
<stop offset="0.00359712" stop-color="#E38DDD"/>
<stop offset="1" stop-color="#9571F6"/>
</linearGradient>
<linearGradient id="paint18_linear_1181_16990" x1="177.761" y1="217.047" x2="177.992" y2="193.184" gradientUnits="userSpaceOnUse">
<stop stop-color="#AA80F9"/>
<stop offset="0.9964" stop-color="#6165D7"/>
</linearGradient>
<linearGradient id="paint19_linear_1181_16990" x1="157.387" y1="194.125" x2="204.652" y2="194.125" gradientUnits="userSpaceOnUse">
<stop stop-color="#40447E"/>
<stop offset="0.9964" stop-color="#3C3B6B"/>
</linearGradient>
</defs>
</svg>
